<svg width="2880" height="1800" viewBox="0 0 2880 1800" fill="none" xmlns="http://www.w3.org/2000/svg">
<path d="M1038.64 962V845.508H1079.54C1102.09 845.508 1120.51 863.213 1120.51 884.893C1120.51 906.5 1102.09 924.133 1079.54 924.133H1062.05V962H1038.64ZM1079.54 901.008C1089.22 901.08 1097.1 893.709 1097.1 884.676C1097.1 875.859 1089.22 868.705 1079.54 868.705H1062.05V900.936L1079.54 901.008ZM1190.18 962L1182.81 945.74H1136.2L1128.75 962H1103.46L1159.1 842.617H1159.83L1215.54 962H1190.18ZM1145.3 925.795H1173.7L1159.54 894.648L1145.3 925.795ZM1316.43 962H1287.81L1250.74 906.934V962H1227.32L1227.25 845.508H1265.26C1287.01 845.508 1304.86 862.273 1304.86 883.23C1304.86 898.189 1295.83 911.27 1283.33 915.678L1316.43 962ZM1250.66 868.705V897.973L1265.7 898.045C1273.64 898.117 1280.73 891.686 1280.73 883.375C1280.73 875.064 1273.57 868.705 1265.7 868.705H1250.66ZM1405.67 962L1398.3 945.74H1351.69L1344.25 962H1318.96L1374.6 842.617H1375.32L1431.04 962H1405.67ZM1360.8 925.795H1389.2L1375.03 894.648L1360.8 925.795ZM1497.38 896.383C1508.58 896.383 1523.11 907.945 1523.11 926.662C1523.11 943.861 1510.75 962 1486.76 962H1442.75V845.508H1474.54C1495.21 845.508 1508.36 860.684 1508.36 876.365C1508.36 888.723 1500.2 896.383 1497.38 896.383ZM1475.99 868.271H1466.09V891.035H1475.55C1481.12 891.035 1486.54 886.266 1486.54 879.473C1486.54 872.896 1481.41 868.271 1475.99 868.271ZM1484.59 939.164C1492.18 939.164 1500.27 933.961 1500.27 925C1500.27 918.279 1495.64 911.559 1484.52 911.559H1466.09V939.164H1484.59ZM1612.21 962L1604.84 945.74H1558.23L1550.78 962H1525.49L1581.13 842.617H1581.86L1637.57 962H1612.21ZM1567.33 925.795H1595.73L1581.57 894.648L1567.33 925.795ZM1719.45 845.219H1742.94V964.168H1741.85L1672.7 896.889V962.145H1649.28V843.34H1650.44L1719.45 910.475V845.219ZM1850.4 962H1821.92L1786.51 910.98V962H1763.17V845.508H1786.51V895.877L1819.25 845.508H1846.28L1808.92 902.525L1850.4 962Z" fill="white"/>
</svg>
