<svg width="197" height="30" viewBox="0 0 197 30" fill="none" xmlns="http://www.w3.org/2000/svg">
<path d="M0.179688 29V0.664062H9.6543C15.1387 0.664062 19.6211 4.86523 19.6211 10.0156C19.6211 15.0605 15.1387 19.1738 9.6543 19.1738H4.62695V29H0.179688ZM9.6543 14.7793C12.6953 14.7969 15.1738 12.6348 15.1738 9.98047C15.1738 7.27344 12.6953 5.07617 9.6543 5.07617H4.62695V14.7617L9.6543 14.7793ZM37.6738 29L35.7402 24.6934H22.3281L20.3945 29H15.5781L28.9023 0.0839844H29.166L42.4902 29H37.6738ZM24.0508 20.8789H34.0176L29.043 9.80469L24.0508 20.8789ZM66.6777 29H61.2109L53.582 18.0312H50.1016V29H45.6543L45.6367 0.664062H54.4434C59.7168 0.664062 64.041 4.72461 64.041 9.76953C64.041 13.4258 61.6855 16.6074 58.4336 17.6621L66.6777 29ZM50.084 14.3398H54.5488C57.2207 14.3574 59.4531 12.1953 59.4531 9.66406C59.4531 7.02734 57.1855 5.07617 54.5488 5.07617H50.084V14.3398ZM89.459 29L87.5254 24.6934H74.1133L72.1797 29H67.3633L80.6875 0.0839844H80.9512L94.2754 29H89.459ZM75.8359 20.8789H85.8027L80.8281 9.80469L75.8359 20.8789ZM110.166 13.0391C113.348 13.0391 116.934 15.957 116.934 20.3691C116.934 24.7109 113.646 29 108.021 29H97.4219V0.664062H105.156C110.043 0.664062 113.348 4.17969 113.348 7.94141C113.348 11 111.221 13.0391 110.166 13.0391ZM105.42 4.98828H101.852V12.0547L105.367 12.0371C107.564 12.0547 109.182 10.543 109.182 8.52148C109.182 6.5 107.424 4.98828 105.42 4.98828ZM107.617 24.6582C110.166 24.6582 112.592 22.8125 112.592 20.0703C112.592 17.9258 110.764 15.957 107.547 15.957L101.852 15.9746V24.6582H107.617ZM139.732 29L137.799 24.6934H124.387L122.453 29H117.637L130.961 0.0839844H131.225L144.549 29H139.732ZM126.109 20.8789H136.076L131.102 9.80469L126.109 20.8789ZM166.012 0.59375H170.477V29.4922H170.266L152.143 10.5605V29.0352H147.695V0.171875H147.924L166.012 19.0684V0.59375ZM196.264 29H190.832L180.355 15.2891V29H175.926V0.664062H180.355V14.2344L190.094 0.664062H195.262L185.207 14.5684L196.264 29Z" fill="white"/>
</svg>
