<svg width="2880" height="1800" viewBox="0 0 2880 1800" fill="none" xmlns="http://www.w3.org/2000/svg">
<path d="M1000.47 892.127C1000.81 890.467 1001.03 889.139 1001.14 888.143C1001.25 887.036 1000.86 885.874 999.976 884.656C1000.42 882.885 1000.75 881.502 1000.97 880.506C1001.3 879.51 1001.36 878.126 1001.14 876.355C1002.13 873.478 1003.63 871.043 1005.62 869.051C1007.72 867.059 1009.99 865.398 1012.43 864.07C1014.86 862.632 1017.41 861.469 1020.06 860.584C1022.72 859.588 1025.21 858.758 1027.53 858.094C1027.53 857.651 1027.31 857.43 1026.87 857.43C1026.43 857.43 1026.32 857.153 1026.54 856.6C1032.51 855.493 1038.49 853.888 1044.47 851.785C1050.56 849.682 1056.75 847.801 1063.06 846.141C1069.37 844.48 1075.84 843.484 1082.49 843.152C1089.13 842.71 1096.1 843.54 1103.4 845.643C1103.85 846.971 1104.45 848.243 1105.23 849.461C1106 850.678 1106.78 851.896 1107.55 853.113C1108.44 854.22 1109.21 855.327 1109.88 856.434C1110.54 857.54 1110.93 858.702 1111.04 859.92C1112.37 861.137 1113.42 862.465 1114.19 863.904C1115.08 865.232 1115.25 867.059 1114.69 869.383C1113.47 870.268 1112.2 871.154 1110.87 872.039C1109.55 872.924 1108.16 873.755 1106.72 874.529C1101.74 873.312 1096.76 872.869 1091.78 873.201C1086.8 873.533 1082.32 873.921 1078.33 874.363C1077.12 873.035 1075.68 872.426 1074.02 872.537C1072.36 872.537 1070.59 872.814 1068.71 873.367C1066.94 873.81 1065.16 874.308 1063.39 874.861C1061.62 875.304 1059.96 875.415 1058.41 875.193C1057.2 876.3 1055.59 877.075 1053.6 877.518C1051.61 877.85 1049.5 878.126 1047.29 878.348C1047.18 878.901 1047.29 879.288 1047.62 879.51C1047.95 879.731 1048.01 880.174 1047.79 880.838C1048.56 881.834 1049.61 882.553 1050.94 882.996C1052.27 883.328 1053.6 883.66 1054.93 883.992C1056.37 884.324 1057.64 884.822 1058.75 885.486C1059.85 886.04 1060.57 886.98 1060.9 888.309C1062.9 888.419 1064.61 888.973 1066.05 889.969C1067.49 890.854 1068.71 891.961 1069.7 893.289C1070.7 894.617 1071.42 896.056 1071.86 897.605C1072.3 899.044 1072.47 900.372 1072.36 901.59C1072.8 902.697 1073.24 903.139 1073.69 902.918C1074.24 902.697 1074.85 902.973 1075.51 903.748C1075.96 905.408 1076.95 907.179 1078.5 909.061C1080.16 910.831 1081.43 912.768 1082.32 914.871C1082.54 918.191 1082.71 921.18 1082.82 923.836C1083.04 926.492 1082.6 929.093 1081.49 931.639C1079.61 936.508 1076.9 940.88 1073.35 944.754C1069.81 948.628 1065.77 952.059 1061.24 955.047C1056.81 957.924 1052.1 960.47 1047.12 962.684C1042.14 964.786 1037.22 966.557 1032.35 967.996C1031.91 967.885 1031.35 967.885 1030.69 967.996C1030.14 968.107 1030.02 967.775 1030.36 967C1029.36 967.885 1028.2 968.439 1026.87 968.66C1025.65 968.882 1024.27 968.937 1022.72 968.826C1021.28 968.826 1019.79 968.771 1018.24 968.66C1016.8 968.549 1015.36 968.605 1013.92 968.826C1013.04 967.941 1012.21 967.055 1011.43 966.17C1010.77 965.285 1010.21 964.233 1009.77 963.016C1009.22 962.905 1008.94 962.573 1008.94 962.02C1009.05 961.355 1008.83 961.023 1008.28 961.023C1008.28 960.581 1008.33 960.249 1008.44 960.027C1008.55 959.806 1008.66 959.585 1008.77 959.363C1009.22 959.031 1009.38 958.81 1009.27 958.699C1009.27 958.478 1009.11 958.312 1008.77 958.201C1008.55 957.98 1008.28 957.758 1007.94 957.537C1007.72 957.316 1007.67 957.039 1007.78 956.707C1008.33 955.711 1008.5 954.549 1008.28 953.221C1008.17 951.782 1008.06 950.343 1007.94 948.904C1007.83 947.465 1007.94 946.137 1008.28 944.92C1008.61 943.592 1009.55 942.485 1011.1 941.6C1015.64 942.042 1019.9 941.821 1023.88 940.936C1027.98 940.05 1031.8 938.833 1035.34 937.283C1038.99 935.734 1042.42 934.074 1045.63 932.303C1048.95 930.421 1052.16 928.706 1055.26 927.156C1055.59 926.049 1056.09 925.109 1056.75 924.334C1057.53 923.559 1058.3 922.84 1059.08 922.176C1059.85 921.401 1060.57 920.626 1061.24 919.852C1061.9 918.966 1062.4 917.915 1062.73 916.697C1062.84 916.255 1062.84 915.923 1062.73 915.701C1062.62 915.48 1062.45 915.314 1062.23 915.203C1062.01 914.982 1061.79 914.76 1061.57 914.539C1061.35 914.318 1061.24 913.986 1061.24 913.543C1060.9 913.432 1060.57 913.322 1060.24 913.211C1060.02 913.1 1059.8 913.045 1059.58 913.045C1056.7 911.606 1053.65 910.389 1050.44 909.393C1047.23 908.396 1044.52 907.29 1042.31 906.072C1040.98 906.958 1039.65 907.179 1038.33 906.736C1037 906.294 1035.39 905.851 1033.51 905.408C1028.86 905.187 1024.44 904.744 1020.23 904.08C1016.13 903.416 1012.15 902.254 1008.28 900.594C1008.06 899.93 1007.78 899.376 1007.45 898.934C1007.11 898.38 1006.34 898.214 1005.12 898.436C1004.35 897.329 1003.52 896.333 1002.63 895.447C1001.86 894.451 1001.14 893.344 1000.47 892.127ZM1189.73 969.158C1185.86 967.387 1182.76 964.786 1180.43 961.355C1178.22 957.924 1176.01 954.106 1173.79 949.9C1173.46 949.236 1173.13 948.572 1172.8 947.908C1172.47 947.244 1172.13 946.635 1171.8 946.082L1169.48 941.766L1168.15 939.109L1166.16 940.936L1163.17 943.592L1161.51 945.252C1158.63 947.908 1155.7 950.564 1152.71 953.221C1149.83 955.766 1146.73 958.09 1143.41 960.193C1140.2 962.186 1136.77 963.846 1133.12 965.174C1129.58 966.391 1125.7 967.055 1121.5 967.166L1117.85 965.34C1115.74 964.233 1113.97 963.237 1112.53 962.352C1111.1 961.466 1109.44 960.083 1107.55 958.201C1107 957.205 1106.5 956.264 1106.06 955.379C1105.73 954.493 1105.34 953.608 1104.9 952.723C1103.68 950.509 1102.68 948.517 1101.91 946.746C1101.13 944.975 1100.36 942.983 1099.58 940.77C1099.92 939.22 1100.42 936.619 1101.08 932.967C1101.74 929.204 1102.52 925.109 1103.4 920.682C1104.4 916.255 1105.4 911.827 1106.39 907.4C1107.5 902.863 1108.61 898.934 1109.71 895.613C1110.71 892.736 1111.81 889.692 1113.03 886.482C1114.36 883.273 1115.74 880.34 1117.18 877.684C1118.73 874.917 1120.39 872.592 1122.16 870.711C1123.93 868.719 1125.82 867.557 1127.81 867.225C1128.36 867.999 1128.97 868.553 1129.63 868.885C1130.3 869.217 1130.91 869.493 1131.46 869.715C1133.01 871.928 1134.5 873.81 1135.94 875.359C1137.49 876.909 1139.26 878.458 1141.25 880.008C1140.7 882.775 1139.87 885.874 1138.76 889.305C1137.77 892.625 1136.66 896.001 1135.44 899.432C1134.34 902.752 1133.23 906.017 1132.12 909.227C1131.02 912.436 1130.13 915.203 1129.47 917.527C1128.8 919.409 1128.25 921.512 1127.81 923.836C1126.81 927.931 1125.87 933.52 1124.99 940.604C1126.31 940.271 1127.75 939.552 1129.3 938.445C1130.85 937.339 1132.35 936.176 1133.78 934.959C1135.44 933.631 1137.1 932.137 1138.76 930.477C1140.87 928.374 1142.64 926.437 1144.08 924.666C1145.52 922.895 1146.84 921.069 1148.06 919.188C1149.39 917.306 1150.72 915.258 1152.05 913.045C1153.37 910.721 1154.98 908.009 1156.86 904.91C1158.52 902.254 1160.24 899.432 1162.01 896.443C1163.89 893.344 1165.71 890.411 1167.49 887.645C1169.37 884.767 1171.19 882.166 1172.96 879.842C1174.73 877.518 1176.34 875.691 1177.78 874.363C1178.66 875.47 1179.77 876.521 1181.1 877.518C1182.54 878.514 1184.03 879.288 1185.58 879.842C1186.25 880.838 1186.85 881.779 1187.41 882.664C1188.07 883.439 1188.68 884.158 1189.23 884.822C1189.9 885.818 1190.51 886.759 1191.06 887.645C1191.72 888.53 1192.33 889.415 1192.89 890.301C1192.78 891.076 1192.61 892.072 1192.39 893.289C1192.17 894.507 1191.89 895.835 1191.56 897.273C1191.34 898.712 1191.06 900.206 1190.73 901.756C1190.4 903.195 1190.06 904.578 1189.73 905.906C1188.85 910.112 1188.18 913.266 1187.74 915.369C1187.3 917.472 1186.96 919.132 1186.74 920.35C1186.63 921.567 1186.52 922.618 1186.41 923.504C1186.41 924.279 1186.41 925.385 1186.41 926.824C1186.3 927.931 1186.36 929.038 1186.58 930.145C1186.69 931.141 1186.91 932.192 1187.24 933.299C1187.57 934.406 1188.02 935.402 1188.57 936.287L1195.21 931.141C1197.09 929.702 1198.86 927.765 1200.52 925.33C1202.29 922.785 1203.95 919.907 1205.5 916.697C1207.16 913.377 1208.77 909.78 1210.32 905.906C1211.87 902.033 1213.42 898.104 1214.97 894.119C1217.29 888.253 1219.61 882.553 1221.94 877.02C1224.37 871.486 1226.7 867.225 1228.91 864.236C1231.35 865.786 1233.45 867.391 1235.22 869.051C1237.1 870.6 1238.71 872.316 1240.03 874.197C1241.36 876.079 1242.41 878.237 1243.19 880.672C1244.07 883.107 1244.68 885.984 1245.01 889.305C1243.02 893.178 1241.09 897.163 1239.2 901.258C1237.43 905.353 1235.72 909.448 1234.06 913.543C1231.84 918.855 1229.52 924.168 1227.08 929.48C1224.76 934.793 1222.16 939.884 1219.28 944.754C1216.4 949.513 1213.19 953.94 1209.65 958.035C1206.11 962.02 1202.02 965.395 1197.37 968.162C1196.15 967.83 1195.1 967.664 1194.21 967.664C1192.44 967.664 1190.95 968.162 1189.73 969.158ZM1322.71 953.055C1322.05 954.936 1321.05 956.873 1319.72 958.865C1318.5 960.747 1317.01 962.462 1315.24 964.012C1313.58 965.451 1311.7 966.668 1309.59 967.664C1307.49 968.66 1305.28 969.214 1302.95 969.324C1301.52 968.992 1300.52 968.605 1299.97 968.162C1299.52 967.83 1299.03 967.498 1298.47 967.166C1298.14 966.945 1297.81 966.779 1297.48 966.668C1297.25 966.447 1297.03 966.281 1296.81 966.17L1294.82 965.34L1295.48 963.182C1295.7 962.296 1295.65 961.632 1295.32 961.189C1294.99 960.636 1294.32 959.917 1293.33 959.031C1292.99 958.699 1292.66 958.367 1292.33 958.035C1292 957.703 1291.72 957.371 1291.5 957.039L1288.68 953.885L1293.16 952.723C1295.93 951.948 1297.75 950.952 1298.64 949.734C1299.63 948.517 1300.02 946.469 1299.8 943.592C1297.59 943.149 1295.7 943.094 1294.16 943.426C1292.72 943.758 1291.22 944.145 1289.67 944.588C1287.68 945.141 1285.63 945.639 1283.53 946.082C1281.54 946.414 1279.32 946.58 1276.89 946.58C1276 946.58 1275.17 946.58 1274.4 946.58C1273.62 946.469 1272.79 946.359 1271.91 946.248L1270.25 945.916C1270.03 944.699 1269.81 944.035 1269.58 943.924C1269.36 943.702 1269.14 943.481 1268.92 943.26C1268.37 942.706 1267.76 941.987 1267.09 941.102C1266.54 940.105 1266.43 938.888 1266.76 937.449C1266.21 936.453 1265.88 935.457 1265.77 934.461C1265.1 935.789 1264.6 937.173 1264.27 938.611L1263.61 940.271L1261.95 940.604C1261.73 940.714 1261.56 940.991 1261.45 941.434C1261.34 941.766 1261.28 942.042 1261.28 942.264L1260.45 945.086C1260.23 945.307 1260.01 945.529 1259.79 945.75C1259.57 945.861 1259.35 946.027 1259.13 946.248C1258.9 947.244 1258.63 948.24 1258.3 949.236C1257.96 950.232 1257.63 951.173 1257.3 952.059C1256.75 953.497 1256.25 954.936 1255.81 956.375C1255.47 957.703 1255.36 959.031 1255.47 960.359L1254.81 962.186C1254.26 962.85 1253.65 963.403 1252.98 963.846C1252.32 964.178 1251.66 964.51 1250.99 964.842C1250.77 965.063 1250.44 965.285 1250 965.506C1249.66 965.617 1249.39 965.727 1249.17 965.838L1248.67 967.664L1246.67 967.996C1245.46 968.217 1244.57 968.383 1244.02 968.494C1243.58 968.605 1243.02 968.66 1242.36 968.66L1240.7 968.494C1239.48 967.498 1238.54 966.723 1237.88 966.17C1237.21 965.506 1236.44 964.897 1235.55 964.344C1234.56 963.016 1234 962.02 1233.89 961.355C1233.78 960.691 1233.67 960.083 1233.56 959.529C1233.34 958.865 1233.23 958.312 1233.23 957.869C1233.12 957.426 1232.95 957.094 1232.73 956.873L1230.57 954.881L1232.4 953.387L1232.56 950.564C1234.78 944.92 1237.1 939.497 1239.54 934.295C1242.08 929.093 1244.68 923.781 1247.34 918.357C1248.22 916.587 1249.05 914.816 1249.83 913.045C1250.71 911.274 1251.6 909.503 1252.49 907.732C1252.37 907.4 1252.32 907.013 1252.32 906.57C1252.32 906.128 1252.43 905.63 1252.65 905.076C1253.87 903.195 1254.86 901.535 1255.64 900.096C1256.41 898.546 1257.19 896.997 1257.96 895.447C1258.85 893.566 1259.73 891.74 1260.62 889.969C1261.62 888.198 1262.83 886.372 1264.27 884.49L1266.93 883.328C1267.26 883.217 1267.65 883.107 1268.09 882.996C1268.53 882.775 1269.03 882.664 1269.58 882.664L1272.08 882.996C1275.17 881.557 1277.89 879.565 1280.21 877.02C1282.53 874.363 1284.91 871.209 1287.35 867.557L1289.01 865.232L1291.17 866.561C1291.72 866.893 1292.5 867.225 1293.49 867.557C1294.49 867.778 1295.54 868.055 1296.65 868.387C1298.64 868.829 1300.52 869.327 1302.29 869.881C1304.06 870.434 1305.5 871.264 1306.61 872.371C1307.27 874.142 1307.66 875.47 1307.77 876.355C1307.88 877.241 1308.05 878.126 1308.27 879.012C1308.6 880.893 1308.88 882.775 1309.1 884.656C1309.43 886.538 1309.65 888.641 1309.76 890.965C1310.31 892.846 1310.76 894.728 1311.09 896.609C1311.53 898.38 1311.92 900.206 1312.25 902.088C1312.8 904.744 1313.36 907.345 1313.91 909.891C1314.46 912.326 1315.18 914.65 1316.07 916.863C1316.95 916.863 1317.51 916.919 1317.73 917.029C1318.28 916.808 1318.84 916.642 1319.39 916.531C1320.05 916.421 1320.77 916.31 1321.55 916.199L1323.37 916.033L1324.04 917.693C1324.15 918.247 1324.7 918.8 1325.7 919.354C1327.14 919.464 1328.19 919.796 1328.85 920.35C1329.52 920.792 1330.13 921.29 1330.68 921.844C1331.12 922.286 1331.56 922.618 1332.01 922.84L1334.5 923.836L1333.17 926.326C1332.06 928.318 1330.46 930.255 1328.35 932.137C1326.36 933.908 1324.09 935.402 1321.55 936.619C1321.66 937.283 1321.71 937.947 1321.71 938.611C1321.82 939.165 1321.99 939.773 1322.21 940.438C1322.54 942.319 1322.82 944.256 1323.04 946.248C1323.26 948.24 1323.26 950.288 1323.04 952.391L1322.71 953.055ZM1274.73 924.334C1278.05 924.113 1281.04 923.891 1283.7 923.67C1286.46 923.338 1289.51 922.84 1292.83 922.176C1292.05 918.855 1291.22 915.424 1290.34 911.883C1289.45 908.23 1288.51 904.633 1287.51 901.092L1286.52 902.752C1284.31 905.076 1282.15 907.677 1280.04 910.555C1278.05 913.432 1276.34 916.144 1274.9 918.689C1274.23 919.686 1273.57 920.682 1272.91 921.678C1272.24 922.674 1271.63 923.67 1271.08 924.666C1271.74 924.555 1272.35 924.5 1272.91 924.5C1273.57 924.5 1274.18 924.445 1274.73 924.334ZM1451.37 937.117C1448.72 941.876 1445.23 945.584 1440.91 948.24C1436.6 950.786 1431.84 952.944 1426.64 954.715C1421.43 956.375 1415.96 957.869 1410.2 959.197C1404.56 960.525 1399.08 962.241 1393.76 964.344C1392.22 964.344 1390.83 964.399 1389.61 964.51C1388.51 964.62 1387.4 964.786 1386.29 965.008C1385.3 965.118 1384.3 965.285 1383.31 965.506C1382.31 965.617 1381.2 965.727 1379.99 965.838C1379.54 965.727 1379.27 965.838 1379.16 966.17C1379.04 966.391 1378.88 966.613 1378.66 966.834C1376.78 967.166 1375.06 967.332 1373.51 967.332C1372.07 967.332 1370.85 967.332 1369.86 967.332C1368.53 967.332 1367.15 967.498 1365.71 967.83C1364.38 968.273 1363.16 968.439 1362.06 968.328C1353.75 967.885 1347.22 964.952 1342.47 959.529C1337.82 953.995 1335.22 946.359 1334.66 936.619C1334.77 936.066 1334.66 935.734 1334.33 935.623C1334.11 935.512 1333.89 935.346 1333.67 935.125C1333.67 934.018 1333.78 933.077 1334 932.303C1334.33 931.528 1334.39 930.532 1334.17 929.314C1337.04 923.227 1340.31 917.583 1343.96 912.381C1347.61 907.068 1351.98 902.42 1357.08 898.436C1357.85 897.771 1358.51 897.107 1359.07 896.443C1359.62 895.779 1360.12 895.115 1360.56 894.451C1361.11 893.787 1361.72 893.234 1362.39 892.791C1363.05 892.238 1363.88 891.85 1364.88 891.629C1367.2 888.973 1369.97 886.538 1373.18 884.324C1376.39 882.111 1379.76 880.008 1383.31 878.016C1386.85 875.913 1390.33 873.865 1393.76 871.873C1397.31 869.77 1400.52 867.446 1403.39 864.9C1404.61 865.454 1405.5 865.62 1406.05 865.398C1406.6 865.177 1407.21 865.177 1407.88 865.398C1408.65 867.059 1409.7 868.221 1411.03 868.885C1412.47 869.549 1413.85 870.268 1415.18 871.043C1416.62 871.707 1417.95 872.537 1419.17 873.533C1420.38 874.529 1421.32 875.857 1421.99 877.518C1421.32 877.518 1420.99 877.794 1420.99 878.348C1421.1 878.79 1421.27 879.288 1421.49 879.842C1421.71 880.285 1421.77 880.783 1421.66 881.336C1421.66 881.779 1421.27 882 1420.49 882C1420.6 882.553 1420.94 882.885 1421.49 882.996C1422.15 882.996 1422.49 883.273 1422.49 883.826C1422.49 884.38 1422.32 884.822 1421.99 885.154C1421.77 885.486 1421.77 886.04 1421.99 886.814C1419.77 888.253 1417.28 889.637 1414.52 890.965C1411.86 892.293 1409.04 893.732 1406.05 895.281C1403.17 896.72 1400.13 898.325 1396.92 900.096C1393.82 901.756 1390.78 903.693 1387.79 905.906C1384.8 908.12 1381.76 910.61 1378.66 913.377C1375.56 916.033 1372.57 918.855 1369.69 921.844C1366.81 924.832 1364.1 927.931 1361.56 931.141C1359.01 934.24 1356.85 937.339 1355.08 940.438C1355.3 940.991 1355.53 941.434 1355.75 941.766C1356.08 941.987 1356.36 942.374 1356.58 942.928C1360.12 943.149 1363.38 943.149 1366.37 942.928C1369.47 942.596 1372.57 942.762 1375.67 943.426C1376 943.204 1376.22 942.872 1376.33 942.43C1376.44 941.987 1376.72 941.655 1377.16 941.434C1383.47 940.77 1389.34 939.773 1394.76 938.445C1400.18 937.007 1405.72 935.512 1411.36 933.963C1410.48 933.631 1409.65 933.354 1408.87 933.133C1408.21 932.801 1407.54 932.524 1406.88 932.303C1406.33 931.749 1406.33 931.307 1406.88 930.975C1407.54 930.532 1408.1 930.089 1408.54 929.646C1406.99 928.761 1405.72 927.654 1404.72 926.326C1403.84 924.998 1403.28 923.227 1403.06 921.014C1403.73 920.46 1404.06 919.796 1404.06 919.021C1404.06 918.247 1403.73 917.638 1403.06 917.195C1402.62 917.085 1402.34 917.085 1402.23 917.195C1402.12 917.306 1402.01 917.472 1401.9 917.693C1401.9 917.915 1401.84 918.136 1401.73 918.357C1401.62 918.468 1401.35 918.413 1400.9 918.191C1401.01 917.195 1401.24 916.365 1401.57 915.701C1402.01 915.037 1402.34 914.262 1402.56 913.377L1414.02 905.74C1415.24 906.626 1416.73 907.622 1418.5 908.729C1420.27 909.725 1422.1 910.776 1423.98 911.883C1425.97 912.879 1427.96 913.93 1429.96 915.037C1432.06 916.033 1434 917.029 1435.77 918.025C1437.32 918.689 1438.7 919.575 1439.92 920.682C1441.13 921.788 1442.3 922.951 1443.4 924.168C1444.51 925.275 1445.62 926.382 1446.72 927.488C1447.94 928.595 1449.32 929.536 1450.87 930.311C1450.65 931.749 1450.71 932.911 1451.04 933.797C1451.37 934.682 1451.48 935.789 1451.37 937.117ZM1516.95 960.857C1516.51 960.415 1516.12 959.917 1515.79 959.363C1515.45 958.699 1515.18 957.869 1514.96 956.873C1513.41 954.992 1512.19 952.833 1511.3 950.398C1510.42 947.964 1509.81 945.473 1509.48 942.928C1509.15 940.271 1509.09 937.615 1509.31 934.959C1509.53 932.303 1509.92 929.812 1510.47 927.488C1510.81 926.382 1511.08 925.219 1511.3 924.002C1511.86 921.899 1512.41 919.852 1512.96 917.859C1513.52 915.757 1514.35 914.041 1515.45 912.713C1515.01 911.495 1515.07 910.167 1515.62 908.729C1516.17 907.29 1516.73 905.962 1517.28 904.744C1517.5 904.412 1517.67 904.135 1517.78 903.914C1517.89 903.582 1518 903.305 1518.11 903.084C1519.44 899.21 1520.71 895.503 1521.93 891.961C1523.26 888.309 1524.53 884.822 1525.75 881.502C1527.96 875.415 1530.06 869.438 1532.06 863.572C1534.16 857.706 1536.04 851.453 1537.7 844.812C1538.59 844.148 1539.36 843.706 1540.02 843.484C1540.25 843.374 1540.52 843.263 1540.85 843.152C1541.19 843.042 1541.57 842.986 1542.02 842.986C1544.34 844.204 1547.05 845.366 1550.15 846.473C1553.36 847.469 1556.07 847.967 1558.29 847.967L1561.11 850.457C1562.55 852.117 1563.76 853.888 1564.76 855.77C1565.87 857.54 1566.2 859.865 1565.76 862.742C1565.09 863.738 1564.54 864.347 1564.1 864.568C1563.43 867.114 1562.71 869.383 1561.94 871.375C1561.16 873.257 1560.39 875.083 1559.61 876.854C1558.73 878.846 1557.9 880.838 1557.12 882.83C1556.35 884.822 1555.69 887.257 1555.13 890.135C1554.47 890.91 1554.03 891.574 1553.8 892.127C1553.69 892.68 1553.53 893.234 1553.31 893.787C1553.08 894.451 1552.81 895.171 1552.48 895.945C1552.14 896.609 1551.65 897.218 1550.98 897.771C1550.54 901.202 1549.87 904.025 1548.99 906.238C1548.1 908.341 1547.22 910.444 1546.33 912.547C1544.78 916.421 1543.34 920.294 1542.02 924.168C1540.69 927.931 1539.91 932.247 1539.69 937.117C1541.02 936.785 1542.24 936.619 1543.34 936.619C1544.78 936.619 1546.17 936.84 1547.5 937.283C1551.48 935.291 1555.8 934.074 1560.44 933.631C1565.2 933.188 1569.91 932.911 1574.56 932.801C1578.43 932.801 1582.03 932.635 1585.35 932.303C1586.45 933.077 1587.17 933.52 1587.5 933.631C1587.84 933.631 1588.39 933.631 1589.17 933.631C1589.5 933.631 1589.83 933.631 1590.16 933.631C1590.49 933.631 1590.94 933.686 1591.49 933.797C1593.04 935.346 1594.53 936.453 1595.97 937.117C1597.41 937.671 1598.96 938.224 1600.62 938.777C1602.06 939.331 1603.44 939.939 1604.77 940.604C1606.21 941.157 1607.59 941.932 1608.92 942.928L1610.42 951.395C1611.3 952.612 1611.69 953.442 1611.58 953.885C1611.58 954.77 1611.36 955.545 1610.91 956.209L1611.25 958.367C1609.14 958.81 1607.76 959.308 1607.09 959.861C1606.43 960.304 1605.71 960.913 1604.94 961.688C1603.72 961.798 1602.56 961.854 1601.45 961.854C1599.24 961.854 1596.97 962.186 1594.64 962.85C1591.32 961.632 1587.67 961.023 1583.69 961.023C1582.14 961.023 1580.53 961.079 1578.87 961.189C1577.32 961.3 1575.77 961.466 1574.22 961.688C1572.56 961.909 1570.9 962.13 1569.24 962.352C1567.58 962.462 1565.92 962.518 1564.26 962.518C1562.93 962.739 1561.99 962.905 1561.44 963.016C1560.89 963.126 1560.33 963.292 1559.78 963.514C1556.02 964.731 1551.92 965.949 1547.5 967.166C1543.18 968.383 1538.81 968.992 1534.38 968.992C1527.85 968.992 1522.59 967.332 1518.61 964.012C1518.17 963.016 1517.83 962.352 1517.61 962.02C1517.39 961.688 1517.17 961.3 1516.95 960.857ZM1702.89 953.055C1702.22 954.936 1701.23 956.873 1699.9 958.865C1698.68 960.747 1697.19 962.462 1695.42 964.012C1693.75 965.451 1691.87 966.668 1689.77 967.664C1687.67 968.66 1685.45 969.214 1683.13 969.324C1681.69 968.992 1680.69 968.605 1680.14 968.162C1679.7 967.83 1679.2 967.498 1678.65 967.166C1678.32 966.945 1677.98 966.779 1677.65 966.668C1677.43 966.447 1677.21 966.281 1676.99 966.17L1675 965.34L1675.66 963.182C1675.88 962.296 1675.83 961.632 1675.49 961.189C1675.16 960.636 1674.5 959.917 1673.5 959.031C1673.17 958.699 1672.84 958.367 1672.5 958.035C1672.17 957.703 1671.9 957.371 1671.67 957.039L1668.85 953.885L1673.33 952.723C1676.1 951.948 1677.93 950.952 1678.81 949.734C1679.81 948.517 1680.2 946.469 1679.98 943.592C1677.76 943.149 1675.88 943.094 1674.33 943.426C1672.89 943.758 1671.4 944.145 1669.85 944.588C1667.86 945.141 1665.81 945.639 1663.71 946.082C1661.71 946.414 1659.5 946.58 1657.07 946.58C1656.18 946.58 1655.35 946.58 1654.58 946.58C1653.8 946.469 1652.97 946.359 1652.08 946.248L1650.42 945.916C1650.2 944.699 1649.98 944.035 1649.76 943.924C1649.54 943.702 1649.32 943.481 1649.1 943.26C1648.54 942.706 1647.93 941.987 1647.27 941.102C1646.72 940.105 1646.61 938.888 1646.94 937.449C1646.39 936.453 1646.05 935.457 1645.94 934.461C1645.28 935.789 1644.78 937.173 1644.45 938.611L1643.78 940.271L1642.12 940.604C1641.9 940.714 1641.74 940.991 1641.63 941.434C1641.52 941.766 1641.46 942.042 1641.46 942.264L1640.63 945.086C1640.41 945.307 1640.19 945.529 1639.97 945.75C1639.74 945.861 1639.52 946.027 1639.3 946.248C1639.08 947.244 1638.8 948.24 1638.47 949.236C1638.14 950.232 1637.81 951.173 1637.48 952.059C1636.92 953.497 1636.42 954.936 1635.98 956.375C1635.65 957.703 1635.54 959.031 1635.65 960.359L1634.99 962.186C1634.43 962.85 1633.82 963.403 1633.16 963.846C1632.5 964.178 1631.83 964.51 1631.17 964.842C1630.95 965.063 1630.61 965.285 1630.17 965.506C1629.84 965.617 1629.56 965.727 1629.34 965.838L1628.84 967.664L1626.85 967.996C1625.63 968.217 1624.75 968.383 1624.19 968.494C1623.75 968.605 1623.2 968.66 1622.53 968.66L1620.87 968.494C1619.66 967.498 1618.72 966.723 1618.05 966.17C1617.39 965.506 1616.61 964.897 1615.73 964.344C1614.73 963.016 1614.18 962.02 1614.07 961.355C1613.96 960.691 1613.85 960.083 1613.74 959.529C1613.51 958.865 1613.4 958.312 1613.4 957.869C1613.29 957.426 1613.13 957.094 1612.91 956.873L1610.75 954.881L1612.57 953.387L1612.74 950.564C1614.95 944.92 1617.28 939.497 1619.71 934.295C1622.26 929.093 1624.86 923.781 1627.51 918.357C1628.4 916.587 1629.23 914.816 1630 913.045C1630.89 911.274 1631.78 909.503 1632.66 907.732C1632.55 907.4 1632.5 907.013 1632.5 906.57C1632.5 906.128 1632.61 905.63 1632.83 905.076C1634.04 903.195 1635.04 901.535 1635.82 900.096C1636.59 898.546 1637.36 896.997 1638.14 895.447C1639.03 893.566 1639.91 891.74 1640.8 889.969C1641.79 888.198 1643.01 886.372 1644.45 884.49L1647.1 883.328C1647.44 883.217 1647.82 883.107 1648.27 882.996C1648.71 882.775 1649.21 882.664 1649.76 882.664L1652.25 882.996C1655.35 881.557 1658.06 879.565 1660.39 877.02C1662.71 874.363 1665.09 871.209 1667.52 867.557L1669.18 865.232L1671.34 866.561C1671.9 866.893 1672.67 867.225 1673.67 867.557C1674.66 867.778 1675.71 868.055 1676.82 868.387C1678.81 868.829 1680.69 869.327 1682.47 869.881C1684.24 870.434 1685.68 871.264 1686.78 872.371C1687.45 874.142 1687.83 875.47 1687.94 876.355C1688.06 877.241 1688.22 878.126 1688.44 879.012C1688.77 880.893 1689.05 882.775 1689.27 884.656C1689.6 886.538 1689.83 888.641 1689.94 890.965C1690.49 892.846 1690.93 894.728 1691.26 896.609C1691.71 898.38 1692.09 900.206 1692.43 902.088C1692.98 904.744 1693.53 907.345 1694.09 909.891C1694.64 912.326 1695.36 914.65 1696.25 916.863C1697.13 916.863 1697.68 916.919 1697.91 917.029C1698.46 916.808 1699.01 916.642 1699.57 916.531C1700.23 916.421 1700.95 916.31 1701.72 916.199L1703.55 916.033L1704.21 917.693C1704.32 918.247 1704.88 918.8 1705.87 919.354C1707.31 919.464 1708.36 919.796 1709.03 920.35C1709.69 920.792 1710.3 921.29 1710.85 921.844C1711.3 922.286 1711.74 922.618 1712.18 922.84L1714.67 923.836L1713.34 926.326C1712.24 928.318 1710.63 930.255 1708.53 932.137C1706.54 933.908 1704.27 935.402 1701.72 936.619C1701.83 937.283 1701.89 937.947 1701.89 938.611C1702 939.165 1702.17 939.773 1702.39 940.438C1702.72 942.319 1703 944.256 1703.22 946.248C1703.44 948.24 1703.44 950.288 1703.22 952.391L1702.89 953.055ZM1654.91 924.334C1658.23 924.113 1661.22 923.891 1663.87 923.67C1666.64 923.338 1669.68 922.84 1673 922.176C1672.23 918.855 1671.4 915.424 1670.51 911.883C1669.63 908.23 1668.69 904.633 1667.69 901.092L1666.69 902.752C1664.48 905.076 1662.32 907.677 1660.22 910.555C1658.23 913.432 1656.51 916.144 1655.07 918.689C1654.41 919.686 1653.75 920.682 1653.08 921.678C1652.42 922.674 1651.81 923.67 1651.25 924.666C1651.92 924.555 1652.53 924.5 1653.08 924.5C1653.75 924.5 1654.35 924.445 1654.91 924.334ZM1801.67 939.939C1802.33 940.271 1802.72 940.825 1802.83 941.6C1802.94 942.374 1802.94 942.983 1802.83 943.426C1800.83 945.971 1799.45 947.742 1798.68 948.738C1797.9 949.734 1797.35 950.509 1797.02 951.062C1796.68 951.505 1796.3 951.893 1795.85 952.225C1795.52 952.557 1794.69 953.276 1793.36 954.383C1788.38 957.371 1783.24 960.027 1777.92 962.352C1772.72 964.676 1767.24 966.281 1761.49 967.166C1760.6 968.383 1758.89 969.214 1756.34 969.656C1753.91 970.21 1751.64 970.708 1749.54 971.15C1749.09 970.929 1748.82 970.597 1748.71 970.154C1748.71 969.822 1748.48 969.546 1748.04 969.324C1747.93 970.431 1747.43 970.984 1746.55 970.984C1745.66 971.095 1744.56 970.874 1743.23 970.32C1742.01 969.878 1740.68 969.214 1739.24 968.328C1737.92 967.553 1736.75 966.834 1735.76 966.17C1735.2 967.055 1734.59 967.941 1733.93 968.826C1733.38 969.712 1732.66 970.32 1731.77 970.652C1730.56 970.431 1729.61 970.265 1728.95 970.154C1728.4 970.044 1727.84 970.265 1727.29 970.818C1726.63 970.486 1726.07 970.099 1725.63 969.656C1725.3 969.214 1724.91 968.771 1724.47 968.328C1724.14 967.996 1723.69 967.664 1723.14 967.332C1722.7 967 1722.03 966.723 1721.15 966.502C1721.37 966.059 1721.26 965.395 1720.82 964.51C1720.37 963.514 1719.71 962.905 1718.82 962.684C1719.27 961.909 1719.04 960.968 1718.16 959.861C1717.38 958.644 1716.78 957.316 1716.33 955.877C1716.55 954.66 1716.72 953.331 1716.83 951.893C1716.94 950.454 1717.61 949.624 1718.82 949.402C1718.71 948.628 1718.55 947.964 1718.33 947.41C1718.1 946.857 1717.88 946.303 1717.66 945.75C1718.44 945.086 1718.99 944.311 1719.32 943.426C1719.65 942.43 1719.93 941.434 1720.15 940.438C1720.37 939.441 1720.65 938.445 1720.98 937.449C1721.31 936.453 1721.92 935.623 1722.81 934.959C1723.8 931.639 1724.58 929.204 1725.13 927.654C1725.69 925.994 1726.07 924.389 1726.29 922.84C1726.63 921.29 1726.96 919.63 1727.29 917.859C1727.73 916.089 1728.45 913.875 1729.45 911.219C1729.34 909.559 1729.5 908.12 1729.95 906.902C1730.39 905.574 1730.83 904.301 1731.27 903.084C1731.83 901.756 1732.27 900.428 1732.6 899.1C1732.93 897.661 1732.88 896.001 1732.44 894.119C1730.89 894.23 1729.78 894.783 1729.12 895.779C1728.45 896.665 1728.01 897.882 1727.79 899.432C1726.9 900.317 1725.8 900.76 1724.47 900.76C1723.25 900.649 1722.14 900.76 1721.15 901.092C1717.27 899.542 1714.06 897.329 1711.52 894.451C1708.97 891.574 1706.93 888.198 1705.38 884.324C1706.37 881.779 1707.87 879.676 1709.86 878.016C1711.85 876.245 1714.12 874.806 1716.67 873.699C1719.21 872.482 1721.92 871.541 1724.8 870.877C1727.68 870.102 1730.44 869.383 1733.1 868.719C1737.42 867.944 1741.73 867.059 1746.05 866.062C1750.37 865.066 1755.01 864.734 1760 865.066C1760.66 864.734 1761.43 864.568 1762.32 864.568C1763.32 864.458 1764.31 864.402 1765.31 864.402C1766.3 864.402 1767.24 864.402 1768.13 864.402C1769.13 864.292 1769.96 864.07 1770.62 863.738C1771.17 864.402 1771.95 864.845 1772.94 865.066C1774.05 865.177 1775.21 865.675 1776.43 866.561C1777.76 865.564 1778.87 865.343 1779.75 865.896C1780.75 866.45 1781.63 867.059 1782.41 867.723C1783.18 868.387 1783.9 868.995 1784.57 869.549C1785.34 870.102 1786.11 870.379 1786.89 870.379C1787.66 871.375 1788.61 872.316 1789.71 873.201C1790.93 874.087 1792.04 875.027 1793.03 876.023C1794.14 876.909 1795.02 877.905 1795.69 879.012C1796.46 880.118 1796.85 881.391 1796.85 882.83C1796.74 883.383 1796.91 883.715 1797.35 883.826C1797.79 883.937 1798.12 884.158 1798.34 884.49C1798.46 887.921 1797.9 890.91 1796.68 893.455C1795.58 895.89 1794.14 898.159 1792.37 900.262C1790.71 902.365 1788.83 904.357 1786.72 906.238C1784.73 908.12 1782.91 910.112 1781.25 912.215C1782.35 913.654 1783.62 914.926 1785.06 916.033C1786.5 917.14 1787.94 918.247 1789.38 919.354C1790.93 920.46 1792.37 921.622 1793.7 922.84C1795.02 924.057 1796.13 925.496 1797.02 927.156C1797.24 927.378 1797.51 927.599 1797.85 927.82C1798.18 927.931 1798.51 928.097 1798.84 928.318C1799.17 929.425 1799.62 930.587 1800.17 931.805C1800.72 932.911 1801.17 934.018 1801.5 935.125C1801.94 936.121 1802.22 937.062 1802.33 937.947C1802.44 938.722 1802.22 939.386 1801.67 939.939ZM1772.45 884.49C1766.8 884.269 1761.16 884.767 1755.51 885.984C1749.98 887.202 1745.33 888.917 1741.57 891.131C1743.45 892.68 1745.33 894.064 1747.21 895.281C1749.2 896.499 1750.75 898.159 1751.86 900.262C1756.18 898.491 1760 896.277 1763.32 893.621C1766.64 890.854 1769.68 887.811 1772.45 884.49ZM1774.6 937.449C1774.94 936.342 1775.55 935.457 1776.43 934.793C1777.32 934.129 1778.2 933.52 1779.09 932.967C1779.97 932.303 1780.75 931.639 1781.41 930.975C1782.08 930.2 1782.35 929.148 1782.24 927.82C1778.7 925.939 1775.43 924.832 1772.45 924.5C1769.57 924.057 1766.8 924.057 1764.15 924.5C1761.6 924.832 1759.11 925.385 1756.67 926.16C1754.35 926.935 1751.97 927.488 1749.54 927.82C1748.32 931.03 1747.05 934.516 1745.72 938.279C1744.39 942.042 1743.12 945.695 1741.9 949.236C1745.22 948.794 1748.26 948.13 1751.03 947.244C1753.8 946.248 1756.45 945.197 1759 944.09C1761.66 942.983 1764.2 941.876 1766.64 940.77C1769.18 939.552 1771.84 938.445 1774.6 937.449ZM1805.48 892.293C1806.26 889.969 1807.48 887.977 1809.14 886.316C1810.91 884.656 1812.79 883.273 1814.78 882.166C1816.88 880.949 1819.04 879.952 1821.25 879.178C1823.47 878.403 1825.57 877.739 1827.56 877.186C1831.99 875.304 1836.69 873.533 1841.67 871.873C1846.77 870.102 1851.91 868.553 1857.11 867.225C1862.43 865.896 1867.85 865.066 1873.38 864.734C1878.92 864.292 1884.73 864.956 1890.82 866.727C1891.15 867.833 1891.65 868.885 1892.31 869.881C1892.97 870.877 1893.64 871.873 1894.3 872.869C1895.08 873.865 1895.74 874.861 1896.29 875.857C1896.85 876.743 1897.18 877.684 1897.29 878.68C1898.4 879.676 1899.28 880.783 1899.95 882C1900.61 883.107 1900.72 884.601 1900.28 886.482C1899.17 887.368 1898.06 888.198 1896.96 888.973C1895.96 889.637 1894.86 890.245 1893.64 890.799C1889.54 889.803 1885.39 889.471 1881.19 889.803C1876.98 890.135 1873.22 890.411 1869.9 890.633C1868.9 889.637 1867.68 889.139 1866.25 889.139C1864.92 889.139 1863.48 889.36 1861.93 889.803C1860.49 890.245 1859 890.688 1857.45 891.131C1856.01 891.574 1854.62 891.684 1853.3 891.463C1852.19 892.348 1850.81 892.957 1849.15 893.289C1847.6 893.51 1845.88 893.732 1844 893.953C1843.89 894.507 1844 894.894 1844.33 895.115C1844.66 895.226 1844.72 895.558 1844.5 896.111C1845.16 896.886 1845.99 897.439 1846.99 897.771C1848.09 898.104 1849.2 898.436 1850.31 898.768C1851.53 899.1 1852.58 899.542 1853.46 900.096C1854.35 900.538 1854.96 901.313 1855.29 902.42C1856.95 902.42 1858.39 902.807 1859.6 903.582C1860.82 904.357 1861.82 905.298 1862.59 906.404C1863.37 907.511 1863.92 908.729 1864.25 910.057C1864.7 911.274 1864.92 912.381 1864.92 913.377C1865.25 914.262 1865.64 914.65 1866.08 914.539C1866.52 914.428 1867.02 914.65 1867.57 915.203C1867.91 916.642 1868.74 918.136 1870.06 919.686C1871.39 921.124 1872.44 922.729 1873.22 924.5C1873.44 927.267 1873.61 929.757 1873.72 931.971C1873.83 934.074 1873.44 936.232 1872.55 938.445C1870.89 942.54 1868.57 946.193 1865.58 949.402C1862.7 952.612 1859.38 955.49 1855.62 958.035C1851.97 960.47 1848.04 962.573 1843.83 964.344C1839.63 966.115 1835.53 967.609 1831.55 968.826C1831.11 968.715 1830.66 968.715 1830.22 968.826C1829.78 968.937 1829.67 968.66 1829.89 967.996C1829 968.771 1828.01 969.269 1826.9 969.49C1825.9 969.712 1824.8 969.767 1823.58 969.656C1822.36 969.656 1821.09 969.601 1819.76 969.49C1818.54 969.38 1817.38 969.435 1816.27 969.656C1815.5 968.882 1814.78 968.107 1814.12 967.332C1813.56 966.668 1813.12 965.783 1812.79 964.676C1812.23 964.676 1811.96 964.399 1811.96 963.846C1812.07 963.292 1811.9 963.016 1811.46 963.016C1812.12 961.909 1812.4 961.3 1812.29 961.189C1812.29 960.968 1812.12 960.802 1811.79 960.691C1811.57 960.581 1811.35 960.47 1811.13 960.359C1810.91 960.138 1810.85 959.861 1810.96 959.529C1811.4 958.644 1811.57 957.648 1811.46 956.541C1811.35 955.324 1811.24 954.106 1811.13 952.889C1811.02 951.671 1811.07 950.509 1811.29 949.402C1811.63 948.296 1812.46 947.41 1813.78 946.746C1817.55 947.189 1821.09 947.078 1824.41 946.414C1827.84 945.639 1831.05 944.588 1834.04 943.26C1837.03 941.932 1839.85 940.493 1842.5 938.943C1845.27 937.394 1847.98 936.01 1850.64 934.793C1850.97 933.797 1851.41 932.967 1851.97 932.303C1852.63 931.639 1853.3 931.03 1853.96 930.477C1854.62 929.923 1855.23 929.314 1855.79 928.65C1856.34 927.986 1856.73 927.156 1856.95 926.16C1857.06 925.385 1856.84 924.943 1856.28 924.832C1855.84 924.611 1855.62 924.168 1855.62 923.504L1853.79 923.006C1851.69 921.788 1849.31 920.792 1846.66 920.018C1844 919.132 1841.73 918.191 1839.85 917.195C1838.63 917.859 1837.47 918.025 1836.36 917.693C1835.37 917.361 1834.04 917.029 1832.38 916.697C1828.61 916.476 1824.96 916.089 1821.42 915.535C1817.99 914.982 1814.67 913.986 1811.46 912.547C1811.24 911.993 1810.96 911.495 1810.63 911.053C1810.3 910.61 1809.69 910.499 1808.8 910.721C1808.14 909.835 1807.48 909.005 1806.81 908.23C1806.15 907.345 1805.54 906.404 1804.99 905.408C1805.21 904.08 1805.37 902.973 1805.48 902.088C1805.59 901.092 1805.26 900.151 1804.49 899.266C1804.93 897.827 1805.26 896.665 1805.48 895.779C1805.7 894.894 1805.7 893.732 1805.48 892.293Z" fill="#212121"/>
</svg>
