<svg width="2880" height="1800" viewBox="0 0 2880 1800" fill="none" xmlns="http://www.w3.org/2000/svg">
<path d="M970.712 856.21C958.586 862.67 947.592 871.283 937.732 882.05C938.979 886.017 940.792 890.267 943.172 894.8C945.552 899.22 948.046 903.98 950.652 909.08C957.566 922 962.496 933.05 965.442 942.23L951.162 965.01C929.969 959.457 911.156 951.693 894.722 941.72C889.622 938.547 884.579 935.26 879.592 931.86L890.982 911.12C908.209 923.02 923.962 931.747 938.242 937.3C935.522 930.613 931.442 922.567 926.002 913.16C920.562 903.64 916.596 896.5 914.102 891.74C911.722 886.867 909.852 882.05 908.492 877.29C915.519 868.563 924.472 859.95 935.352 851.45C945.326 843.63 954.846 837.567 963.912 833.26L996.722 855.19C994.569 864.823 989.639 876.78 981.932 891.06C980.006 894.687 978.306 897.577 976.832 899.73L956.432 888C960.966 880.747 965.726 870.15 970.712 856.21ZM1029.41 923.19C1024.09 923.19 1019.89 922.793 1016.83 922C1015.02 926.42 1013.89 931.917 1013.43 938.49C1032.93 937.357 1051.74 932.993 1069.87 925.4C1075.99 922.907 1081.89 919.96 1087.55 916.56L1091.12 933.73C1080.58 940.417 1068.12 946.31 1053.72 951.41C1038.42 956.85 1023.97 959.91 1010.37 960.59L989.294 941.04C989.294 925.4 993.544 911.12 1002.04 898.2C1008.16 889.247 1015.08 882.163 1022.78 876.95C1030.6 871.737 1038.08 867.997 1045.22 865.73L1073.95 889.53C1071.12 901.317 1065.74 909.873 1057.8 915.2C1049.87 920.527 1040.41 923.19 1029.41 923.19ZM1023.97 906.7C1030.55 906.7 1036.27 904.887 1041.14 901.26C1046.81 896.953 1049.64 890.947 1049.64 883.24C1038.2 889.473 1029.64 897.293 1023.97 906.7ZM1105.42 938.49C1133.19 934.863 1157.33 927.553 1177.84 916.56L1181.58 933.73C1164.13 944.723 1144.75 952.713 1123.44 957.7C1116.3 959.287 1109.27 960.25 1102.36 960.59L1081.28 941.04C1081.28 932.993 1081.79 926.76 1082.81 922.34C1087.23 903.64 1098.05 888.567 1115.28 877.12C1122.99 872.02 1130.81 868.223 1138.74 865.73L1165.94 885.96C1165.37 888.567 1163.79 892.703 1161.18 898.37C1156.87 907.89 1153.47 914.407 1150.98 917.92L1129.56 904.32C1135.68 896.613 1139.53 890.153 1141.12 884.94C1130.24 889.587 1121.4 897.067 1114.6 907.38C1108.48 916.673 1105.42 927.043 1105.42 938.49ZM1238.4 936.79C1227.52 949.37 1213.18 957.303 1195.39 960.59L1171.25 940.36C1171.25 929.48 1173.4 918.713 1177.71 908.06C1183.15 894.687 1192.1 883.863 1204.57 875.59C1213.18 869.81 1222.53 866.24 1232.62 864.88L1259.65 888C1257.72 900.24 1254.44 910.893 1249.79 919.96C1257.95 919.507 1267.19 918.373 1277.5 916.56L1281.24 933.73C1266.51 939.85 1254.95 943.987 1246.56 946.14L1238.4 936.79ZM1194.03 937.47C1206.95 934.523 1217.72 926.533 1226.33 913.5C1229.96 907.947 1232.56 902.62 1234.15 897.52C1235.74 892.42 1236.59 888.34 1236.7 885.28C1227.52 886.527 1218.79 891.4 1210.52 899.9C1200.21 910.44 1194.71 922.963 1194.03 937.47ZM1309.79 896.84C1321.12 887.887 1332.85 880.18 1344.98 873.72L1365.55 889.87C1361.81 905.963 1355.24 920.47 1345.83 933.39C1357.16 929.537 1370.03 923.927 1384.42 916.56L1387.99 933.73C1383.34 936.79 1376.26 940.7 1366.74 945.46C1350.42 953.507 1339.14 958.55 1332.91 960.59L1311.83 945.63C1318.63 937.47 1324.3 929.423 1328.83 921.49C1333.48 913.443 1336.48 906.417 1337.84 900.41C1323.33 907.21 1309.51 915.143 1296.36 924.21C1291.15 936.677 1286.73 948.803 1283.1 960.59L1262.87 947.5C1266.72 934.467 1272.73 919.79 1280.89 903.47C1288.26 888.85 1295.96 876.497 1304.01 866.41L1321.18 878.82C1317.21 884.147 1313.42 890.153 1309.79 896.84ZM1429.79 945.29C1420.84 952.317 1410.53 957.417 1398.85 960.59L1377.77 941.04C1377.77 932.087 1379.13 923.303 1381.85 914.69C1384.57 906.077 1388.6 898.313 1393.92 891.4C1399.25 884.487 1405.82 878.763 1413.64 874.23C1421.58 869.583 1430.7 866.807 1441.01 865.9L1450.36 880.18C1459.2 863.067 1468.5 847.88 1478.24 834.62L1494.73 848.9C1483.51 863.18 1471.9 883.467 1459.88 909.76C1456.26 917.693 1453.03 925.457 1450.19 933.05C1462.32 929.423 1475.01 923.927 1488.27 916.56L1492.01 933.73C1484.31 939.51 1471.84 946.593 1454.61 954.98C1449.74 957.247 1445.83 958.89 1442.88 959.91L1429.79 945.29ZM1401.57 936.11C1413.7 932.823 1424.75 924.777 1434.72 911.97C1437.67 905.51 1439.88 897.463 1441.35 887.83C1429.68 888.963 1420.1 894.12 1412.62 903.3C1405.26 912.367 1401.57 923.303 1401.57 936.11ZM1607.04 925.4C1598.66 919.96 1591.01 915.37 1584.09 911.63C1574.46 929.99 1566.58 946.423 1560.46 960.93L1540.57 942.74C1546.24 930.16 1553.55 916.107 1562.5 900.58L1549.07 894.12L1560.63 874.23L1574.23 880.69C1584.66 863.69 1594.01 849.92 1602.28 839.38L1620.64 855.87C1616 861.99 1607.84 873.947 1596.16 891.74C1603.42 895.82 1610.78 900.183 1618.26 904.83C1634.81 876.383 1648.3 855.587 1658.72 842.44L1677.08 858.93C1663.71 876.95 1650.85 896.84 1638.49 918.6L1652.94 929.31L1639.68 948.69L1627.61 939.51C1622.74 949.143 1618.83 957.927 1615.88 965.86L1596.16 947.67C1598.88 941.55 1602.51 934.127 1607.04 925.4ZM1719.49 945.29C1710.54 952.317 1700.23 957.417 1688.55 960.59L1667.47 941.04C1667.47 932.087 1668.83 923.303 1671.55 914.69C1674.27 906.077 1678.3 898.313 1683.62 891.4C1688.95 884.487 1695.52 878.763 1703.34 874.23C1711.28 869.583 1720.4 866.807 1730.71 865.9L1741.93 883.07C1743.29 880.917 1746.18 877.177 1750.6 871.85L1767.26 886.13C1756.04 900.75 1746.75 916.39 1739.38 933.05L1738.87 933.39C1745.45 931.69 1753.15 928.8 1761.99 924.72C1770.83 920.527 1776.44 917.807 1778.82 916.56L1782.56 933.73C1775.88 938.603 1764.77 944.893 1749.24 952.6C1743.12 955.66 1737.57 958.097 1732.58 959.91L1719.49 945.29ZM1691.27 936.11C1703.4 932.823 1714.45 924.777 1724.42 911.97C1727.37 905.51 1729.58 897.463 1731.05 887.83C1719.38 888.963 1709.8 894.12 1702.32 903.3C1694.96 912.367 1691.27 923.303 1691.27 936.11ZM1811.16 896.84C1822.49 887.887 1834.22 880.18 1846.35 873.72L1866.92 889.87C1863.18 905.963 1856.6 920.47 1847.2 933.39C1858.53 929.537 1871.39 923.927 1885.79 916.56L1889.36 933.73C1884.71 936.79 1877.63 940.7 1868.11 945.46C1851.79 953.507 1840.51 958.55 1834.28 960.59L1813.2 945.63C1820 937.47 1825.66 929.423 1830.2 921.49C1834.84 913.443 1837.85 906.417 1839.21 900.41C1824.7 907.21 1810.87 915.143 1797.73 924.21C1792.51 936.677 1788.09 948.803 1784.47 960.59L1764.24 947.5C1768.09 934.467 1774.1 919.79 1782.26 903.47C1789.62 888.85 1797.33 876.497 1805.38 866.41L1822.55 878.82C1818.58 884.147 1814.78 890.153 1811.16 896.84ZM1931.16 945.29C1922.21 952.317 1911.9 957.417 1900.22 960.59L1879.14 941.04C1879.14 932.087 1880.5 923.303 1883.22 914.69C1885.94 906.077 1889.97 898.313 1895.29 891.4C1900.62 884.487 1907.19 878.763 1915.01 874.23C1922.95 869.583 1932.07 866.807 1942.38 865.9L1951.73 880.18C1960.57 863.067 1969.87 847.88 1979.61 834.62L1996.1 848.9C1984.88 863.18 1973.27 883.467 1961.25 909.76C1957.63 917.693 1954.4 925.457 1951.56 933.05C1963.69 929.423 1976.38 923.927 1989.64 916.56L1993.38 933.73C1985.68 939.51 1973.21 946.593 1955.98 954.98C1951.11 957.247 1947.2 958.89 1944.25 959.91L1931.16 945.29ZM1902.94 936.11C1915.07 932.823 1926.12 924.777 1936.09 911.97C1939.04 905.51 1941.25 897.463 1942.72 887.83C1931.05 888.963 1921.47 894.12 1913.99 903.3C1906.63 912.367 1902.94 923.303 1902.94 936.11Z" fill="white"/>
</svg>
